<mxfile host="app.diagrams.net" agent="Mozilla/5.0 (Windows NT 10.0; Win64; x64) AppleWebKit/537.36 (KHTML, like Gecko) Chrome/132.0.0.0 Safari/537.36" version="26.0.6">
  <diagram name="Page-1" id="mFnrhZgw1TqE_1BFrMOu">
    <mxGraphModel dx="1048" dy="551" grid="0" gridSize="10" guides="1" tooltips="1" connect="1" arrows="1" fold="1" page="1" pageScale="1" pageWidth="850" pageHeight="1100" math="0" shadow="0">
      <root>
        <mxCell id="0" />
        <mxCell id="1" parent="0" />
        <mxCell id="O4yrx8OkoV51yiEXNpI1-5" value="&lt;u&gt;INIT&lt;/u&gt;:&lt;div&gt;P1.0 --&amp;gt; Output&amp;nbsp;&lt;/div&gt;" style="shape=document;whiteSpace=wrap;html=1;boundedLbl=1;align=left;" vertex="1" parent="1">
          <mxGeometry x="40" y="40" width="90" height="55" as="geometry" />
        </mxCell>
        <mxCell id="O4yrx8OkoV51yiEXNpI1-6" value="main" style="ellipse;whiteSpace=wrap;html=1;" vertex="1" parent="1">
          <mxGeometry x="160" y="42.5" width="120" height="50" as="geometry" />
        </mxCell>
        <mxCell id="O4yrx8OkoV51yiEXNpI1-7" value="" style="endArrow=classic;html=1;rounded=0;exitX=1;exitY=0.5;exitDx=0;exitDy=0;entryX=0;entryY=0.5;entryDx=0;entryDy=0;" edge="1" parent="1" source="O4yrx8OkoV51yiEXNpI1-5" target="O4yrx8OkoV51yiEXNpI1-6">
          <mxGeometry width="50" height="50" relative="1" as="geometry">
            <mxPoint x="150" y="332.5" as="sourcePoint" />
            <mxPoint x="150" y="82.5" as="targetPoint" />
            <Array as="points" />
          </mxGeometry>
        </mxCell>
        <mxCell id="O4yrx8OkoV51yiEXNpI1-9" value="TOGGLE P1.0" style="rounded=0;whiteSpace=wrap;html=1;" vertex="1" parent="1">
          <mxGeometry x="160" y="112.5" width="120" height="40" as="geometry" />
        </mxCell>
        <mxCell id="O4yrx8OkoV51yiEXNpI1-10" value="Set Outer Delay Loop" style="rounded=0;whiteSpace=wrap;html=1;" vertex="1" parent="1">
          <mxGeometry x="160" y="172.5" width="120" height="40" as="geometry" />
        </mxCell>
        <mxCell id="O4yrx8OkoV51yiEXNpI1-43" value="" style="edgeStyle=orthogonalEdgeStyle;rounded=0;orthogonalLoop=1;jettySize=auto;html=1;" edge="1" parent="1" source="O4yrx8OkoV51yiEXNpI1-11" target="O4yrx8OkoV51yiEXNpI1-28">
          <mxGeometry relative="1" as="geometry" />
        </mxCell>
        <mxCell id="O4yrx8OkoV51yiEXNpI1-11" value="delay_1ms" style="shape=parallelogram;perimeter=parallelogramPerimeter;whiteSpace=wrap;html=1;fixedSize=1;" vertex="1" parent="1">
          <mxGeometry x="380" y="172.5" width="120" height="40" as="geometry" />
        </mxCell>
        <mxCell id="O4yrx8OkoV51yiEXNpI1-15" value="RETURN" style="ellipse;whiteSpace=wrap;html=1;" vertex="1" parent="1">
          <mxGeometry x="160" y="292.5" width="120" height="50" as="geometry" />
        </mxCell>
        <mxCell id="O4yrx8OkoV51yiEXNpI1-16" value="" style="endArrow=classic;html=1;rounded=0;exitX=0.5;exitY=1;exitDx=0;exitDy=0;" edge="1" parent="1" source="O4yrx8OkoV51yiEXNpI1-6">
          <mxGeometry width="50" height="50" relative="1" as="geometry">
            <mxPoint x="160" y="242.5" as="sourcePoint" />
            <mxPoint x="220" y="112.5" as="targetPoint" />
          </mxGeometry>
        </mxCell>
        <mxCell id="O4yrx8OkoV51yiEXNpI1-17" value="" style="endArrow=classic;html=1;rounded=0;exitX=0.5;exitY=1;exitDx=0;exitDy=0;" edge="1" parent="1">
          <mxGeometry width="50" height="50" relative="1" as="geometry">
            <mxPoint x="219.85000000000002" y="152.5" as="sourcePoint" />
            <mxPoint x="219.85000000000002" y="172.5" as="targetPoint" />
          </mxGeometry>
        </mxCell>
        <mxCell id="O4yrx8OkoV51yiEXNpI1-18" value="" style="endArrow=classic;html=1;rounded=0;exitX=0.5;exitY=1;exitDx=0;exitDy=0;" edge="1" parent="1">
          <mxGeometry width="50" height="50" relative="1" as="geometry">
            <mxPoint x="219.85000000000002" y="212.5" as="sourcePoint" />
            <mxPoint x="219.85000000000002" y="232.5" as="targetPoint" />
          </mxGeometry>
        </mxCell>
        <mxCell id="O4yrx8OkoV51yiEXNpI1-19" value="" style="endArrow=classic;html=1;rounded=0;exitX=0.5;exitY=1;exitDx=0;exitDy=0;" edge="1" parent="1">
          <mxGeometry width="50" height="50" relative="1" as="geometry">
            <mxPoint x="219.89" y="272.5" as="sourcePoint" />
            <mxPoint x="219.89" y="292.5" as="targetPoint" />
          </mxGeometry>
        </mxCell>
        <mxCell id="O4yrx8OkoV51yiEXNpI1-32" value="" style="edgeStyle=orthogonalEdgeStyle;rounded=0;orthogonalLoop=1;jettySize=auto;html=1;" edge="1" parent="1" source="O4yrx8OkoV51yiEXNpI1-20">
          <mxGeometry relative="1" as="geometry">
            <mxPoint x="440" y="172.5" as="targetPoint" />
          </mxGeometry>
        </mxCell>
        <mxCell id="O4yrx8OkoV51yiEXNpI1-20" value="delay_1s" style="ellipse;whiteSpace=wrap;html=1;" vertex="1" parent="1">
          <mxGeometry x="380" y="42.5" width="120" height="50" as="geometry" />
        </mxCell>
        <mxCell id="O4yrx8OkoV51yiEXNpI1-21" value="Set Inner Delay Loop" style="rounded=0;whiteSpace=wrap;html=1;" vertex="1" parent="1">
          <mxGeometry x="380" y="112.5" width="120" height="40" as="geometry" />
        </mxCell>
        <mxCell id="O4yrx8OkoV51yiEXNpI1-22" value="&lt;u&gt;INIT&lt;/u&gt;:&lt;div&gt;P6.6 --&amp;gt; Output&lt;/div&gt;&lt;div&gt;&lt;br&gt;&lt;/div&gt;&lt;div&gt;TimerB0 as&lt;/div&gt;&lt;div&gt;* ACLK&lt;/div&gt;&lt;div&gt;* Continuous&lt;/div&gt;&lt;div&gt;* Counter = 1&lt;/div&gt;&lt;div&gt;* ID = 8&lt;/div&gt;" style="shape=document;whiteSpace=wrap;html=1;boundedLbl=1;align=left;size=0.11764705882352941;" vertex="1" parent="1">
          <mxGeometry x="50" y="650" width="90" height="140" as="geometry" />
        </mxCell>
        <mxCell id="O4yrx8OkoV51yiEXNpI1-23" value="TimerB0" style="ellipse;whiteSpace=wrap;html=1;" vertex="1" parent="1">
          <mxGeometry x="170" y="650" width="120" height="50" as="geometry" />
        </mxCell>
        <mxCell id="O4yrx8OkoV51yiEXNpI1-26" value="" style="endArrow=classic;html=1;rounded=0;exitX=0.5;exitY=1;exitDx=0;exitDy=0;" edge="1" parent="1">
          <mxGeometry width="50" height="50" relative="1" as="geometry">
            <mxPoint x="439.89" y="92.5" as="sourcePoint" />
            <mxPoint x="439.89" y="112.5" as="targetPoint" />
          </mxGeometry>
        </mxCell>
        <mxCell id="O4yrx8OkoV51yiEXNpI1-27" value="delay_1s" style="shape=parallelogram;perimeter=parallelogramPerimeter;whiteSpace=wrap;html=1;fixedSize=1;" vertex="1" parent="1">
          <mxGeometry x="160" y="232.5" width="120" height="40" as="geometry" />
        </mxCell>
        <mxCell id="O4yrx8OkoV51yiEXNpI1-28" value="RETURN" style="ellipse;whiteSpace=wrap;html=1;" vertex="1" parent="1">
          <mxGeometry x="380" y="232.5" width="120" height="50" as="geometry" />
        </mxCell>
        <mxCell id="O4yrx8OkoV51yiEXNpI1-29" value="" style="endArrow=classic;html=1;rounded=0;exitX=0.5;exitY=1;exitDx=0;exitDy=0;" edge="1" parent="1">
          <mxGeometry width="50" height="50" relative="1" as="geometry">
            <mxPoint x="439.89" y="212.5" as="sourcePoint" />
            <mxPoint x="439.89" y="232.5" as="targetPoint" />
          </mxGeometry>
        </mxCell>
        <mxCell id="O4yrx8OkoV51yiEXNpI1-30" value="" style="endArrow=classic;html=1;rounded=0;exitX=0.5;exitY=1;exitDx=0;exitDy=0;" edge="1" parent="1">
          <mxGeometry width="50" height="50" relative="1" as="geometry">
            <mxPoint x="439.87" y="152.5" as="sourcePoint" />
            <mxPoint x="439.87" y="172.5" as="targetPoint" />
          </mxGeometry>
        </mxCell>
        <mxCell id="O4yrx8OkoV51yiEXNpI1-33" value="delay_1ms" style="ellipse;whiteSpace=wrap;html=1;" vertex="1" parent="1">
          <mxGeometry x="577" y="42.5" width="120" height="50" as="geometry" />
        </mxCell>
        <mxCell id="O4yrx8OkoV51yiEXNpI1-34" value="" style="endArrow=classic;html=1;rounded=0;exitX=0.5;exitY=1;exitDx=0;exitDy=0;" edge="1" parent="1">
          <mxGeometry width="50" height="50" relative="1" as="geometry">
            <mxPoint x="636.89" y="92.5" as="sourcePoint" />
            <mxPoint x="636.89" y="112.5" as="targetPoint" />
          </mxGeometry>
        </mxCell>
        <mxCell id="O4yrx8OkoV51yiEXNpI1-35" value="Decrement Inner Delay Loop" style="rounded=0;whiteSpace=wrap;html=1;" vertex="1" parent="1">
          <mxGeometry x="577" y="112.5" width="120" height="40" as="geometry" />
        </mxCell>
        <mxCell id="O4yrx8OkoV51yiEXNpI1-36" value="" style="endArrow=classic;html=1;rounded=0;exitX=0.5;exitY=1;exitDx=0;exitDy=0;" edge="1" parent="1">
          <mxGeometry width="50" height="50" relative="1" as="geometry">
            <mxPoint x="636.87" y="152.5" as="sourcePoint" />
            <mxPoint x="636.87" y="172.5" as="targetPoint" />
          </mxGeometry>
        </mxCell>
        <mxCell id="O4yrx8OkoV51yiEXNpI1-37" value="Inner = 0" style="rhombus;whiteSpace=wrap;html=1;" vertex="1" parent="1">
          <mxGeometry x="602" y="172.5" width="70" height="67.5" as="geometry" />
        </mxCell>
        <mxCell id="O4yrx8OkoV51yiEXNpI1-38" value="" style="endArrow=classic;html=1;rounded=0;exitX=0.5;exitY=1;exitDx=0;exitDy=0;entryX=0.502;entryY=0.029;entryDx=0;entryDy=0;entryPerimeter=0;" edge="1" parent="1" target="O4yrx8OkoV51yiEXNpI1-39">
          <mxGeometry width="50" height="50" relative="1" as="geometry">
            <mxPoint x="636.89" y="240" as="sourcePoint" />
            <mxPoint x="636.89" y="260" as="targetPoint" />
          </mxGeometry>
        </mxCell>
        <mxCell id="O4yrx8OkoV51yiEXNpI1-48" value="Yes" style="edgeLabel;html=1;align=center;verticalAlign=middle;resizable=0;points=[];" vertex="1" connectable="0" parent="O4yrx8OkoV51yiEXNpI1-38">
          <mxGeometry x="-0.2553" y="-1" relative="1" as="geometry">
            <mxPoint as="offset" />
          </mxGeometry>
        </mxCell>
        <mxCell id="O4yrx8OkoV51yiEXNpI1-39" value="Decrement Outer Delay Loop" style="rounded=0;whiteSpace=wrap;html=1;" vertex="1" parent="1">
          <mxGeometry x="577" y="270" width="120" height="40" as="geometry" />
        </mxCell>
        <mxCell id="O4yrx8OkoV51yiEXNpI1-40" value="Outer = 0" style="rhombus;whiteSpace=wrap;html=1;" vertex="1" parent="1">
          <mxGeometry x="602" y="330" width="70" height="67.5" as="geometry" />
        </mxCell>
        <mxCell id="O4yrx8OkoV51yiEXNpI1-41" value="" style="endArrow=classic;html=1;rounded=0;exitX=0.5;exitY=1;exitDx=0;exitDy=0;" edge="1" parent="1">
          <mxGeometry width="50" height="50" relative="1" as="geometry">
            <mxPoint x="636.86" y="310" as="sourcePoint" />
            <mxPoint x="636.86" y="330" as="targetPoint" />
          </mxGeometry>
        </mxCell>
        <mxCell id="O4yrx8OkoV51yiEXNpI1-45" value="RETURN" style="ellipse;whiteSpace=wrap;html=1;" vertex="1" parent="1">
          <mxGeometry x="577" y="430" width="120" height="50" as="geometry" />
        </mxCell>
        <mxCell id="O4yrx8OkoV51yiEXNpI1-46" value="" style="endArrow=classic;html=1;rounded=0;exitX=0.5;exitY=1;exitDx=0;exitDy=0;entryX=0.503;entryY=-0.012;entryDx=0;entryDy=0;entryPerimeter=0;" edge="1" parent="1" target="O4yrx8OkoV51yiEXNpI1-45">
          <mxGeometry width="50" height="50" relative="1" as="geometry">
            <mxPoint x="636.89" y="397.5" as="sourcePoint" />
            <mxPoint x="636.89" y="417.5" as="targetPoint" />
          </mxGeometry>
        </mxCell>
        <mxCell id="O4yrx8OkoV51yiEXNpI1-47" value="Yes" style="edgeLabel;html=1;align=center;verticalAlign=middle;resizable=0;points=[];" vertex="1" connectable="0" parent="O4yrx8OkoV51yiEXNpI1-46">
          <mxGeometry x="-0.2047" y="1" relative="1" as="geometry">
            <mxPoint as="offset" />
          </mxGeometry>
        </mxCell>
        <mxCell id="O4yrx8OkoV51yiEXNpI1-49" value="" style="curved=1;endArrow=classic;html=1;rounded=0;exitX=1;exitY=0.5;exitDx=0;exitDy=0;entryX=1;entryY=0.5;entryDx=0;entryDy=0;" edge="1" parent="1" source="O4yrx8OkoV51yiEXNpI1-37" target="O4yrx8OkoV51yiEXNpI1-35">
          <mxGeometry width="50" height="50" relative="1" as="geometry">
            <mxPoint x="732" y="258.75" as="sourcePoint" />
            <mxPoint x="747" y="152.5" as="targetPoint" />
            <Array as="points">
              <mxPoint x="727" y="200" />
              <mxPoint x="737" y="160" />
              <mxPoint x="717" y="140" />
            </Array>
          </mxGeometry>
        </mxCell>
        <mxCell id="O4yrx8OkoV51yiEXNpI1-50" value="No" style="edgeLabel;html=1;align=center;verticalAlign=middle;resizable=0;points=[];" vertex="1" connectable="0" parent="O4yrx8OkoV51yiEXNpI1-49">
          <mxGeometry x="-0.04" y="2" relative="1" as="geometry">
            <mxPoint as="offset" />
          </mxGeometry>
        </mxCell>
        <mxCell id="O4yrx8OkoV51yiEXNpI1-52" value="delay_1s" style="shape=parallelogram;perimeter=parallelogramPerimeter;whiteSpace=wrap;html=1;fixedSize=1;" vertex="1" parent="1">
          <mxGeometry x="708" y="343.75" width="120" height="40" as="geometry" />
        </mxCell>
        <mxCell id="O4yrx8OkoV51yiEXNpI1-54" value="" style="endArrow=classic;html=1;rounded=0;exitX=1;exitY=0.5;exitDx=0;exitDy=0;entryX=0;entryY=0.5;entryDx=0;entryDy=0;" edge="1" parent="1" source="O4yrx8OkoV51yiEXNpI1-40">
          <mxGeometry width="50" height="50" relative="1" as="geometry">
            <mxPoint x="657" y="400" as="sourcePoint" />
            <mxPoint x="717" y="363.7500000000001" as="targetPoint" />
          </mxGeometry>
        </mxCell>
        <mxCell id="O4yrx8OkoV51yiEXNpI1-55" value="" style="endArrow=classic;html=1;rounded=0;exitX=1;exitY=0.5;exitDx=0;exitDy=0;entryX=0;entryY=0.5;entryDx=0;entryDy=0;" edge="1" parent="1">
          <mxGeometry width="50" height="50" relative="1" as="geometry">
            <mxPoint x="140" y="674.8" as="sourcePoint" />
            <mxPoint x="170" y="674.8" as="targetPoint" />
            <Array as="points" />
          </mxGeometry>
        </mxCell>
        <mxCell id="O4yrx8OkoV51yiEXNpI1-56" value="TOGGLE P6.6" style="rounded=0;whiteSpace=wrap;html=1;" vertex="1" parent="1">
          <mxGeometry x="170" y="719.5" width="120" height="40" as="geometry" />
        </mxCell>
        <mxCell id="O4yrx8OkoV51yiEXNpI1-57" value="" style="endArrow=classic;html=1;rounded=0;exitX=0.5;exitY=1;exitDx=0;exitDy=0;" edge="1" parent="1">
          <mxGeometry width="50" height="50" relative="1" as="geometry">
            <mxPoint x="230" y="700" as="sourcePoint" />
            <mxPoint x="230" y="719.5" as="targetPoint" />
          </mxGeometry>
        </mxCell>
        <mxCell id="O4yrx8OkoV51yiEXNpI1-58" value="Clear Interrupt Flag" style="rounded=0;whiteSpace=wrap;html=1;" vertex="1" parent="1">
          <mxGeometry x="170" y="779" width="120" height="40" as="geometry" />
        </mxCell>
        <mxCell id="O4yrx8OkoV51yiEXNpI1-59" value="" style="endArrow=classic;html=1;rounded=0;exitX=0.5;exitY=1;exitDx=0;exitDy=0;" edge="1" parent="1">
          <mxGeometry width="50" height="50" relative="1" as="geometry">
            <mxPoint x="230" y="759.5" as="sourcePoint" />
            <mxPoint x="230" y="779" as="targetPoint" />
          </mxGeometry>
        </mxCell>
        <mxCell id="O4yrx8OkoV51yiEXNpI1-60" value="" style="endArrow=classic;html=1;rounded=0;exitX=0.5;exitY=1;exitDx=0;exitDy=0;" edge="1" parent="1">
          <mxGeometry width="50" height="50" relative="1" as="geometry">
            <mxPoint x="229.86" y="819" as="sourcePoint" />
            <mxPoint x="229.86" y="838.5" as="targetPoint" />
          </mxGeometry>
        </mxCell>
        <mxCell id="O4yrx8OkoV51yiEXNpI1-61" value="RETURN" style="ellipse;whiteSpace=wrap;html=1;" vertex="1" parent="1">
          <mxGeometry x="170" y="839" width="120" height="50" as="geometry" />
        </mxCell>
      </root>
    </mxGraphModel>
  </diagram>
</mxfile>
